<svg version="1.1" id="Layer_1" xmlns="http://www.w3.org/2000/svg" xmlns:xlink="http://www.w3.org/1999/xlink" x="0px" y="0px"
	 width="100%" viewBox="0 0 322 353" enable-background="new 0 0 322 353" xml:space="preserve">
<path fill="#000000" opacity="1.000000" stroke="none" 
	d="
M323.000000,335.000000 
	C323.000000,336.066681 323.000000,337.133331 322.657166,338.679443 
	C321.256592,340.154694 320.198792,341.150482 319.610107,341.704681 
	C317.274200,341.030579 315.490631,340.102478 313.702606,340.093750 
	C310.794189,340.079559 307.877228,340.992096 304.973663,340.942261 
	C293.892151,340.751953 282.816589,340.212311 271.735046,340.024750 
	C247.332138,339.611755 222.927612,339.134369 198.522491,339.050598 
	C168.318970,338.946930 138.157822,338.599243 108.033661,342.714722 
	C89.506409,345.245880 70.608856,345.266907 51.860249,345.910034 
	C38.384346,346.372284 24.874414,345.781464 11.390893,346.114746 
	C6.461756,346.236572 4.574330,345.097351 4.895919,339.836731 
	C5.571923,328.778595 5.721945,317.686249 5.988702,306.605560 
	C6.577141,282.162689 5.914424,257.765259 2.933258,233.473694 
	C2.783701,232.255066 1.666596,231.155182 0.999999,230.000000 
	C1.000000,229.555557 1.000000,229.111099 1.408701,228.166229 
	C1.544935,221.110550 1.272467,214.555267 1.000000,208.000000 
	C1.000000,207.555557 1.000000,207.111099 1.404893,206.328598 
	C4.464526,202.224426 5.583643,198.055099 4.970189,193.479080 
	C4.756057,191.881760 4.061804,190.316635 4.039856,188.730530 
	C3.651577,160.671295 3.188313,132.611862 3.038584,104.550888 
	C2.870666,73.080742 3.004311,41.609016 2.987847,10.137992 
	C2.986982,8.486148 2.555856,6.795485 2.801024,5.195847 
	C2.973616,4.069740 3.887300,2.206982 4.584636,2.153004 
	C8.390999,1.858365 12.264506,1.705200 16.056936,2.083990 
	C31.302313,3.606704 46.495491,6.198084 61.767365,6.749577 
	C75.881355,7.259256 90.070808,5.658719 104.227783,5.003784 
	C118.885361,4.325689 133.537994,3.351424 148.203415,3.080283 
	C166.347183,2.744833 184.501862,2.995559 202.651825,3.009199 
	C203.974854,3.010194 205.516037,2.723678 206.585434,3.281225 
	C213.671646,6.975810 221.302383,7.101743 228.976944,6.991241 
	C250.376770,6.683111 271.775970,6.332225 293.175476,6.002660 
	C294.507263,5.982150 296.120422,6.487592 297.120911,5.911582 
	C300.600830,3.908063 305.730743,5.568993 308.000000,1.000000 
	C308.444458,1.000000 308.888885,1.000000 309.785095,1.387579 
	C310.724579,2.868151 311.212311,3.961143 311.648224,4.937936 
	C320.264618,5.241989 320.158112,3.366793 319.978577,12.949532 
	C319.730652,26.183077 319.184296,39.412075 319.028778,52.646111 
	C318.611176,88.175842 318.320007,123.707108 318.010254,159.238037 
	C317.940613,167.225052 318.002075,175.213196 317.999146,183.200821 
	C317.997620,187.360947 317.977783,191.521088 317.983032,195.681198 
	C317.993774,204.171036 317.515869,212.699127 318.161957,221.140854 
	C318.941162,231.322403 320.662323,241.432800 322.029602,251.566742 
	C322.142853,252.406189 322.666840,253.190216 323.000000,254.000000 
	C323.000000,263.687561 323.000000,273.375122 322.634125,283.644165 
	C318.120392,291.746735 318.825806,299.950287 319.028900,308.047028 
	C319.230072,316.068512 319.799377,324.082031 319.921051,332.103394 
	C319.958679,334.583862 320.684875,335.395569 323.000000,335.000000 
M147.792755,7.002491 
	C146.539871,7.334301 145.299301,7.895636 144.032272,7.963560 
	C124.447746,9.013467 104.866325,10.608630 85.270668,10.819235 
	C67.610893,11.009035 49.929562,9.772801 32.268730,8.934053 
	C26.919594,8.680015 21.604759,7.672681 16.278692,6.976140 
	C13.294707,6.585895 10.319900,6.125488 7.155920,5.670060 
	C7.072571,7.169949 7.000369,7.814535 7.006179,8.458418 
	C7.333303,44.708004 7.632036,80.957893 8.011633,117.206932 
	C8.284781,143.290817 8.842138,169.373489 8.854758,195.456909 
	C8.857342,200.796448 6.254491,206.123352 6.157150,211.479782 
	C5.961939,222.221771 6.663434,232.980240 7.010672,243.731415 
	C7.031707,244.382675 7.198881,245.028519 7.286176,245.678482 
	C8.192184,252.423889 9.690378,259.153198 9.877333,265.918671 
	C10.277678,280.406403 10.011372,294.912903 9.982611,309.411621 
	C9.979696,310.880219 9.625517,312.347961 9.620036,313.816772 
	C9.585101,323.179352 9.602251,332.542084 9.602251,342.832458 
	C30.545021,341.884216 51.350166,340.886627 72.160851,340.022430 
	C83.240555,339.562317 94.329834,339.332733 105.414825,339.000366 
	C105.914459,338.985382 106.418144,339.018890 106.913742,338.968658 
	C119.915489,337.650726 132.899231,335.456604 145.921417,335.198761 
	C166.657516,334.788208 187.418777,335.689392 208.170029,335.994110 
	C232.586823,336.352661 257.003784,336.714325 281.421692,336.978851 
	C292.803589,337.102203 304.187897,336.999969 315.000000,336.999969 
	C315.000000,324.480103 314.988190,313.294556 315.004578,302.109100 
	C315.013885,295.756348 314.247314,289.311859 317.928589,283.474213 
	C318.729462,282.204193 318.982330,280.382141 318.949249,278.825775 
	C318.709930,267.572479 318.399628,256.319458 317.952332,245.072693 
	C317.836731,242.165161 317.122223,239.284439 316.737976,236.384079 
	C315.478302,226.875565 313.894867,217.391418 313.136597,207.842255 
	C312.711060,202.483749 313.883972,197.018768 313.963470,191.596283 
	C314.375244,163.513885 314.746094,135.430374 314.971893,107.345963 
	C315.120605,88.848701 314.999664,70.349281 315.000702,51.850822 
	C315.000793,50.684345 315.017029,49.517868 315.017151,48.351391 
	C315.018372,35.322536 315.017914,22.293678 315.017914,8.766425 
	C311.909485,9.143321 308.382050,9.895425 304.844055,9.948671 
	C276.595245,10.373827 248.344543,10.676888 220.093933,10.970327 
	C218.650543,10.985320 217.190521,10.629901 215.758850,10.343878 
	C207.000504,8.594105 198.423843,6.393789 189.238419,6.833859 
	C175.770462,7.479105 162.248627,7.000112 147.792755,7.002491 
z"/>
<path fill="#FFFFFF" opacity="1.000000" stroke="none" 
	d="
M0.999999,230.468658 
	C1.666596,231.155182 2.783701,232.255066 2.933258,233.473694 
	C5.914424,257.765259 6.577141,282.162689 5.988702,306.605560 
	C5.721945,317.686249 5.571923,328.778595 4.895919,339.836731 
	C4.574330,345.097351 6.461756,346.236572 11.390893,346.114746 
	C24.874414,345.781464 38.384346,346.372284 51.860249,345.910034 
	C70.608856,345.266907 89.506409,345.245880 108.033661,342.714722 
	C138.157822,338.599243 168.318970,338.946930 198.522491,339.050598 
	C222.927612,339.134369 247.332138,339.611755 271.735046,340.024750 
	C282.816589,340.212311 293.892151,340.751953 304.973663,340.942261 
	C307.877228,340.992096 310.794189,340.079559 313.702606,340.093750 
	C315.490631,340.102478 317.274200,341.030579 319.610107,341.704681 
	C320.198792,341.150482 321.256592,340.154694 322.657166,339.079468 
	C323.000000,343.995239 323.000000,348.990509 323.000000,353.992859 
	C322.838226,354.000000 322.676483,354.000000 322.514709,354.000000 
	C215.449783,354.000000 108.384865,354.000000 1.000000,354.000000 
	C1.000000,312.979675 1.000000,271.958496 0.999999,230.468658 
z"/>
<path fill="#FFFFFF" opacity="1.000000" stroke="none" 
	d="
M307.531342,1.000000 
	C305.730743,5.568993 300.600830,3.908063 297.120911,5.911582 
	C296.120422,6.487592 294.507263,5.982150 293.175476,6.002660 
	C271.775970,6.332225 250.376770,6.683111 228.976944,6.991241 
	C221.302383,7.101743 213.671646,6.975810 206.585434,3.281225 
	C205.516037,2.723678 203.974854,3.010194 202.651825,3.009199 
	C184.501862,2.995559 166.347183,2.744833 148.203415,3.080283 
	C133.537994,3.351424 118.885361,4.325689 104.227783,5.003784 
	C90.070808,5.658719 75.881355,7.259256 61.767365,6.749577 
	C46.495491,6.198084 31.302313,3.606704 16.056936,2.083990 
	C12.264506,1.705200 8.390999,1.858365 4.584636,2.153004 
	C3.887300,2.206982 2.973616,4.069740 2.801024,5.195847 
	C2.555856,6.795485 2.986982,8.486148 2.987847,10.137992 
	C3.004311,41.609016 2.870666,73.080742 3.038584,104.550888 
	C3.188313,132.611862 3.651577,160.671295 4.039856,188.730530 
	C4.061804,190.316635 4.756057,191.881760 4.970189,193.479080 
	C5.583643,198.055099 4.464526,202.224426 1.404893,205.995270 
	C1.000000,137.725082 1.000000,69.450180 1.000000,1.000000 
	C103.020828,1.000000 205.041748,1.000000 307.531342,1.000000 
z"/>
<path fill="#FFFFFF" opacity="1.000000" stroke="none" 
	d="
M323.000000,253.531342 
	C322.666840,253.190216 322.142853,252.406189 322.029602,251.566742 
	C320.662323,241.432800 318.941162,231.322403 318.161957,221.140854 
	C317.515869,212.699127 317.993774,204.171036 317.983032,195.681198 
	C317.977783,191.521088 317.997620,187.360947 317.999146,183.200821 
	C318.002075,175.213196 317.940613,167.225052 318.010254,159.238037 
	C318.320007,123.707108 318.611176,88.175842 319.028778,52.646111 
	C319.184296,39.412075 319.730652,26.183077 319.978577,12.949532 
	C320.158112,3.366793 320.264618,5.241989 311.648224,4.937936 
	C311.212311,3.961143 310.724579,2.868151 310.118408,1.387579 
	C314.326202,1.000000 318.652374,1.000000 323.000000,1.000000 
	C323.000000,85.020897 323.000000,169.041794 323.000000,253.531342 
z"/>
<path fill="#FFFFFF" opacity="1.000000" stroke="none" 
	d="
M323.000000,334.531342 
	C320.684875,335.395569 319.958679,334.583862 319.921051,332.103394 
	C319.799377,324.082031 319.230072,316.068512 319.028900,308.047028 
	C318.825806,299.950287 318.120392,291.746735 322.634125,284.112793 
	C323.000000,300.687561 323.000000,317.375122 323.000000,334.531342 
z"/>
<path fill="#FFFFFF" opacity="1.000000" stroke="none" 
	d="
M1.000000,208.468414 
	C1.272467,214.555267 1.544935,221.110550 1.408701,227.832916 
	C1.000000,221.645599 1.000000,215.291214 1.000000,208.468414 
z"/>
<path fill="#FFFFFF" opacity="1.000000" stroke="none" 
	d="
M148.271255,7.001329 
	C162.248627,7.000112 175.770462,7.479105 189.238419,6.833859 
	C198.423843,6.393789 207.000504,8.594105 215.758850,10.343878 
	C217.190521,10.629901 218.650543,10.985320 220.093933,10.970327 
	C248.344543,10.676888 276.595245,10.373827 304.844055,9.948671 
	C308.382050,9.895425 311.909485,9.143321 315.017914,8.766425 
	C315.017914,22.293678 315.018372,35.322536 315.017151,48.351391 
	C315.017029,49.517868 315.000793,50.684345 315.000702,51.850822 
	C314.999664,70.349281 315.120605,88.848701 314.971893,107.345963 
	C314.746094,135.430374 314.375244,163.513885 313.963470,191.596283 
	C313.883972,197.018768 312.711060,202.483749 313.136597,207.842255 
	C313.894867,217.391418 315.478302,226.875565 316.737976,236.384079 
	C317.122223,239.284439 317.836731,242.165161 317.952332,245.072693 
	C318.399628,256.319458 318.709930,267.572479 318.949249,278.825775 
	C318.982330,280.382141 318.729462,282.204193 317.928589,283.474213 
	C314.247314,289.311859 315.013885,295.756348 315.004578,302.109100 
	C314.988190,313.294556 315.000000,324.480103 315.000000,336.999969 
	C304.187897,336.999969 292.803589,337.102203 281.421692,336.978851 
	C257.003784,336.714325 232.586823,336.352661 208.170029,335.994110 
	C187.418777,335.689392 166.657516,334.788208 145.921417,335.198761 
	C132.899231,335.456604 119.915489,337.650726 106.913742,338.968658 
	C106.418144,339.018890 105.914459,338.985382 105.414825,339.000366 
	C94.329834,339.332733 83.240555,339.562317 72.160851,340.022430 
	C51.350166,340.886627 30.545021,341.884216 9.602251,342.832458 
	C9.602251,332.542084 9.585101,323.179352 9.620036,313.816772 
	C9.625517,312.347961 9.979696,310.880219 9.982611,309.411621 
	C10.011372,294.912903 10.277678,280.406403 9.877333,265.918671 
	C9.690378,259.153198 8.192184,252.423889 7.286176,245.678482 
	C7.198881,245.028519 7.031707,244.382675 7.010672,243.731415 
	C6.663434,232.980240 5.961939,222.221771 6.157150,211.479782 
	C6.254491,206.123352 8.857342,200.796448 8.854758,195.456909 
	C8.842138,169.373489 8.284781,143.290817 8.011633,117.206932 
	C7.632036,80.957893 7.333303,44.708004 7.006179,8.458418 
	C7.000369,7.814535 7.072571,7.169949 7.155920,5.670060 
	C10.319900,6.125488 13.294707,6.585895 16.278692,6.976140 
	C21.604759,7.672681 26.919594,8.680015 32.268730,8.934053 
	C49.929562,9.772801 67.610893,11.009035 85.270668,10.819235 
	C104.866325,10.608630 124.447746,9.013467 144.032272,7.963560 
	C145.299301,7.895636 146.539871,7.334301 148.271255,7.001329 
z"/>
</svg>